<svg id="visual" viewBox="0 0 960 540" preserveAspectRatio="none" xmlns="http://www.w3.org/2000/svg" xmlns:xlink="http://www.w3.org/1999/xlink" version="1.1"><path d="M0 229L10 245.2C20 261.3 40 293.7 60 296.7C80 299.7 100 273.3 120 253.5C140 233.7 160 220.3 180 211C200 201.7 220 196.3 240 217C260 237.7 280 284.3 300 306.8C320 329.3 340 327.7 360 312.2C380 296.7 400 267.3 420 260.3C440 253.3 460 268.7 480 285.5C500 302.3 520 320.7 540 322.3C560 324 580 309 600 309.2C620 309.3 640 324.7 660 317.2C680 309.7 700 279.3 720 265.7C740 252 760 255 780 247.3C800 239.7 820 221.3 840 227C860 232.7 880 262.3 900 260.2C920 258 940 224 950 207L960 190L960 541L950 541C940 541 920 541 900 541C880 541 860 541 840 541C820 541 800 541 780 541C760 541 740 541 720 541C700 541 680 541 660 541C640 541 620 541 600 541C580 541 560 541 540 541C520 541 500 541 480 541C460 541 440 541 420 541C400 541 380 541 360 541C340 541 320 541 300 541C280 541 260 541 240 541C220 541 200 541 180 541C160 541 140 541 120 541C100 541 80 541 60 541C40 541 20 541 10 541L0 541Z" fill="#1f6858"></path></svg>