<svg id="visual" viewBox="0 0 960 540" preserveAspectRatio="none" xmlns="http://www.w3.org/2000/svg" xmlns:xlink="http://www.w3.org/1999/xlink" version="1.1"><path d="M0 324L10 328.7C20 333.3 40 342.7 60 339.5C80 336.3 100 320.7 120 299.3C140 278 160 251 180 264.3C200 277.7 220 331.3 240 350.7C260 370 280 355 300 353C320 351 340 362 360 348.7C380 335.3 400 297.7 420 293.7C440 289.7 460 319.3 480 322.3C500 325.3 520 301.7 540 286.7C560 271.7 580 265.3 600 256.5C620 247.7 640 236.3 660 228.2C680 220 700 215 720 240.8C740 266.7 760 323.3 780 341.3C800 359.3 820 338.7 840 316.7C860 294.7 880 271.3 900 261C920 250.7 940 253.3 950 254.7L960 256L960 541L950 541C940 541 920 541 900 541C880 541 860 541 840 541C820 541 800 541 780 541C760 541 740 541 720 541C700 541 680 541 660 541C640 541 620 541 600 541C580 541 560 541 540 541C520 541 500 541 480 541C460 541 440 541 420 541C400 541 380 541 360 541C340 541 320 541 300 541C280 541 260 541 240 541C220 541 200 541 180 541C160 541 140 541 120 541C100 541 80 541 60 541C40 541 20 541 10 541L0 541Z" fill="#33a68d"></path></svg>