<svg id="visual" viewBox="0 0 960 540" preserveAspectRatio="none" xmlns="http://www.w3.org/2000/svg" xmlns:xlink="http://www.w3.org/1999/xlink" version="1.1"><path d="M0 360L13.3 367.7C26.7 375.3 53.3 390.7 80 392.7C106.7 394.7 133.3 383.3 160 378C186.7 372.7 213.3 373.3 240 366.3C266.7 359.3 293.3 344.7 320 330.3C346.7 316 373.3 302 400 317.3C426.7 332.7 453.3 377.3 480 391.8C506.7 406.3 533.3 390.7 560 391.2C586.7 391.7 613.3 408.3 640 409.3C666.7 410.3 693.3 395.7 720 375.2C746.7 354.7 773.3 328.3 800 317.8C826.7 307.3 853.3 312.7 880 333.5C906.7 354.3 933.3 390.7 946.7 408.8L960 427L960 541L946.7 541C933.3 541 906.7 541 880 541C853.3 541 826.7 541 800 541C773.3 541 746.7 541 720 541C693.3 541 666.7 541 640 541C613.3 541 586.7 541 560 541C533.3 541 506.7 541 480 541C453.3 541 426.7 541 400 541C373.3 541 346.7 541 320 541C293.3 541 266.7 541 240 541C213.3 541 186.7 541 160 541C133.3 541 106.7 541 80 541C53.3 541 26.7 541 13.3 541L0 541Z" fill="#48E5C2"></path></svg>