<?xml version="1.0" encoding="UTF-8"?>
<svg xmlns="http://www.w3.org/2000/svg" xmlns:xlink="http://www.w3.org/1999/xlink" viewBox="0 0 100 100" width="100px" height="100px">
<g id="surface316372663">
<path style=" stroke:none;fill-rule:nonzero;fill:rgb(97.254902%,97.647059%,98.039216%);fill-opacity:1;" d="M 50 0 C 22.386719 0 0 22.386719 0 50 C 0 73.429688 16.132812 93.035156 37.882812 98.457031 C 37.648438 97.785156 37.5 97 37.5 96.027344 L 37.5 87.484375 C 35.472656 87.484375 32.070312 87.484375 31.214844 87.484375 C 27.796875 87.484375 24.753906 86.011719 23.277344 83.277344 C 21.640625 80.242188 21.359375 75.597656 17.300781 72.753906 C 16.097656 71.808594 17.011719 70.730469 18.398438 70.875 C 20.960938 71.601562 23.085938 73.359375 25.085938 75.964844 C 27.078125 78.578125 28.015625 79.171875 31.738281 79.171875 C 33.542969 79.171875 36.242188 79.066406 38.785156 78.667969 C 40.148438 75.195312 42.511719 72 45.398438 70.492188 C 28.75 68.777344 20.804688 60.496094 20.804688 49.25 C 20.804688 44.410156 22.867188 39.726562 26.371094 35.777344 C 25.222656 31.863281 23.773438 23.875 26.8125 20.832031 C 34.304688 20.832031 38.832031 25.691406 39.921875 27.003906 C 43.652344 25.726562 47.753906 25 52.0625 25 C 56.378906 25 60.496094 25.726562 64.238281 27.011719 C 65.3125 25.707031 69.847656 20.832031 77.355469 20.832031 C 80.402344 23.878906 78.941406 31.898438 77.777344 35.808594 C 81.261719 39.746094 83.3125 44.417969 83.3125 49.25 C 83.3125 60.488281 75.378906 68.765625 58.753906 70.488281 C 63.328125 72.875 66.667969 79.582031 66.667969 84.636719 L 66.667969 96.027344 C 66.667969 96.460938 66.570312 96.773438 66.519531 97.144531 C 86.003906 90.316406 100 71.816406 100 50 C 100 22.386719 77.613281 0 50 0 Z M 50 0 "/>
</g>
</svg>
