<?xml version="1.0" encoding="UTF-8"?>
<svg xmlns="http://www.w3.org/2000/svg" xmlns:xlink="http://www.w3.org/1999/xlink" viewBox="0 0 100 100" width="100px" height="100px">
<g id="surface317331970">
<path style=" stroke:none;fill-rule:nonzero;fill:rgb(97.254902%,97.647059%,98.039216%);fill-opacity:1;" d="M 50 0 C 22.386719 0 0 22.386719 0 50 C 0 77.613281 22.386719 100 50 100 C 77.613281 100 100 77.613281 100 50 C 100 22.386719 77.613281 0 50 0 Z M 31.234375 22.511719 C 34.742188 22.511719 37.078125 24.851562 37.078125 27.964844 C 37.078125 31.082031 34.742188 33.421875 30.847656 33.421875 C 27.335938 33.425781 25 31.082031 25 27.964844 C 25 24.851562 27.335938 22.511719 31.234375 22.511719 Z M 37.5 70.832031 L 25 70.832031 L 25 37.5 L 37.5 37.5 Z M 79.167969 70.832031 L 67.398438 70.832031 L 67.398438 52.617188 C 67.398438 47.578125 64.261719 46.417969 63.085938 46.417969 C 61.914062 46.417969 57.988281 47.191406 57.988281 52.617188 C 57.988281 53.390625 57.988281 70.832031 57.988281 70.832031 L 45.832031 70.832031 L 45.832031 37.5 L 57.992188 37.5 L 57.992188 42.148438 C 59.558594 39.4375 62.695312 37.5 68.578125 37.5 C 74.460938 37.5 79.167969 42.148438 79.167969 52.617188 Z M 79.167969 70.832031 "/>
</g>
</svg>
