<?xml version="1.0" encoding="UTF-8"?>
<svg xmlns="http://www.w3.org/2000/svg" xmlns:xlink="http://www.w3.org/1999/xlink" viewBox="0 0 100 100" width="100px" height="100px">
<g id="surface317330855">
<path style=" stroke:none;fill-rule:nonzero;fill:rgb(97.254902%,97.647059%,98.039216%);fill-opacity:1;" d="M 50 0 C 22.386719 0 0 22.386719 0 50 C 0 59.378906 2.632812 68.125 7.128906 75.625 L 0.449219 100 L 25.339844 93.464844 C 32.621094 97.605469 41.027344 100 50 100 C 77.613281 100 100 77.613281 100 50 C 100 22.386719 77.613281 0 50 0 Z M 32.886719 26.675781 C 33.699219 26.675781 34.53125 26.671875 35.253906 26.707031 C 36.144531 26.730469 37.117188 26.796875 38.046875 28.847656 C 39.148438 31.289062 41.554688 37.417969 41.863281 38.035156 C 42.171875 38.65625 42.390625 39.390625 41.960938 40.203125 C 41.550781 41.035156 41.339844 41.539062 40.738281 42.277344 C 40.117188 42.992188 39.4375 43.882812 38.875 44.425781 C 38.253906 45.046875 37.613281 45.726562 38.332031 46.964844 C 39.046875 48.203125 41.535156 52.257812 45.214844 55.535156 C 49.945312 59.757812 53.933594 61.058594 55.175781 61.679688 C 56.417969 62.300781 57.136719 62.203125 57.851562 61.367188 C 58.589844 60.554688 60.949219 57.769531 61.785156 56.527344 C 62.597656 55.285156 63.425781 55.5 64.550781 55.90625 C 65.691406 56.316406 71.78125 59.316406 73.023438 59.9375 C 74.265625 60.558594 75.078125 60.863281 75.390625 61.367188 C 75.710938 61.890625 75.710938 64.367188 74.683594 67.261719 C 73.652344 70.148438 68.601562 72.941406 66.332031 73.136719 C 64.046875 73.347656 61.910156 74.164062 51.464844 70.050781 C 38.863281 65.089844 30.917969 52.183594 30.296875 51.351562 C 29.675781 50.539062 25.253906 44.640625 25.253906 38.558594 C 25.253906 32.453125 28.453125 29.464844 29.574219 28.222656 C 30.714844 26.980469 32.050781 26.675781 32.886719 26.675781 Z M 32.886719 26.675781 "/>
</g>
</svg>
