<svg width="1080" height="1920" viewBox="0 0 1080 1920" fill="none" xmlns="http://www.w3.org/2000/svg">
<g clip-path="url(#clip0_201_1174)">
<rect x="117.179" y="481.22" width="76.4376" height="76.4376" transform="rotate(51.0419 117.179 481.22)" fill="#212121"/>
<rect x="116.179" y="489.221" width="76.4376" height="76.4376" transform="rotate(51.0419 116.179 489.221)" fill="#48E5C2"/>
<rect x="652.609" y="1654.59" width="76.4376" height="76.4376" transform="rotate(104.249 652.609 1654.59)" fill="#212121"/>
<rect x="645.603" y="1658.58" width="76.4376" height="76.4376" transform="rotate(104.249 645.603 1658.58)" fill="#48E5C2"/>
<rect x="919.088" y="502.992" width="76.4376" height="76.4376" transform="rotate(92.8572 919.088 502.992)" fill="#212121"/>
<rect x="913.009" y="512.288" width="76.4376" height="76.4376" transform="rotate(92.8572 913.009 512.288)" fill="#48E5C2"/>
<rect x="428.164" y="699.374" width="76.4376" height="76.4376" transform="rotate(67.2444 428.164 699.374)" fill="#212121"/>
<rect x="426.701" y="710.384" width="76.4376" height="76.4376" transform="rotate(67.2444 426.701 710.384)" fill="#48E5C2"/>
</g>
<defs>
<clipPath id="clip0_201_1174">
<rect width="1920" height="1080" fill="white" transform="translate(0 1920) rotate(-90)"/>
</clipPath>
</defs>
</svg>
