<svg id="visual" viewBox="0 0 1920 1080" preserveAspectRatio="none" xmlns="http://www.w3.org/2000/svg" xmlns:xlink="http://www.w3.org/1999/xlink" version="1.1"><g stroke-width="1" stroke-linejoin="bevel"><path d="M1054.7 544L1264 497L1054.7 376Z" fill="#41dfc0" stroke="#41dfc0"></path><path d="M1264 497L1265 325L1054.7 376Z" fill="#17bbaf" stroke="#17bbaf"></path><path d="M1265 325L1093.7 192L1054.7 376Z" fill="#0fb5ac" stroke="#0fb5ac"></path><path d="M1054.7 544L1105.7 760L1264 497Z" fill="#0fb5ac" stroke="#0fb5ac"></path><path d="M1105.7 760L1304 741L1264 497Z" fill="#2ccdb8" stroke="#2ccdb8"></path><path d="M1264 497L1523.3 336L1265 325Z" fill="#00a9a5" stroke="#00a9a5"></path><path d="M1536.3 161L1253 154L1265 325Z" fill="#33d3bb" stroke="#33d3bb"></path><path d="M1265 325L1253 154L1093.7 192Z" fill="#17bbaf" stroke="#17bbaf"></path><path d="M820.3 329L821.3 516L1054.7 376Z" fill="#41dfc0" stroke="#41dfc0"></path><path d="M1054.7 376L821.3 516L1054.7 544Z" fill="#48e5c2" stroke="#48e5c2"></path><path d="M1054.7 544L890.3 688L1105.7 760Z" fill="#33d3bb" stroke="#33d3bb"></path><path d="M821.3 516L890.3 688L1054.7 544Z" fill="#0fb5ac" stroke="#0fb5ac"></path><path d="M872.3 162L820.3 329L1054.7 376Z" fill="#25c7b5" stroke="#25c7b5"></path><path d="M1467.3 713L1527.3 544L1264 497Z" fill="#07afa8" stroke="#07afa8"></path><path d="M1527.3 544L1523.3 336L1264 497Z" fill="#2ccdb8" stroke="#2ccdb8"></path><path d="M1103.7 0L872.3 162L1093.7 192Z" fill="#2ccdb8" stroke="#2ccdb8"></path><path d="M1093.7 192L872.3 162L1054.7 376Z" fill="#1ec1b2" stroke="#1ec1b2"></path><path d="M1304 741L1467.3 713L1264 497Z" fill="#33d3bb" stroke="#33d3bb"></path><path d="M890.3 688L1053.7 891L1105.7 760Z" fill="#2ccdb8" stroke="#2ccdb8"></path><path d="M1105.7 760L1315 942L1304 741Z" fill="#17bbaf" stroke="#17bbaf"></path><path d="M1304 741L1498.3 933L1467.3 713Z" fill="#0fb5ac" stroke="#0fb5ac"></path><path d="M1243 0L1103.7 0L1253 154Z" fill="#1ec1b2" stroke="#1ec1b2"></path><path d="M1253 154L1103.7 0L1093.7 192Z" fill="#25c7b5" stroke="#25c7b5"></path><path d="M1534.3 0L1243 0L1253 154Z" fill="#33d3bb" stroke="#33d3bb"></path><path d="M820.3 329L664 521L821.3 516Z" fill="#1ec1b2" stroke="#1ec1b2"></path><path d="M821.3 516L639 680L890.3 688Z" fill="#33d3bb" stroke="#33d3bb"></path><path d="M890.3 688L888.3 930L1053.7 891Z" fill="#48e5c2" stroke="#48e5c2"></path><path d="M603 349L664 521L820.3 329Z" fill="#2ccdb8" stroke="#2ccdb8"></path><path d="M1669.7 175L1536.3 161L1523.3 336Z" fill="#3ad9bd" stroke="#3ad9bd"></path><path d="M1523.3 336L1536.3 161L1265 325Z" fill="#17bbaf" stroke="#17bbaf"></path><path d="M1053.7 891L1315 942L1105.7 760Z" fill="#2ccdb8" stroke="#2ccdb8"></path><path d="M676 931L888.3 930L890.3 688Z" fill="#2ccdb8" stroke="#2ccdb8"></path><path d="M1053.7 891L1269 1080L1315 942Z" fill="#41dfc0" stroke="#41dfc0"></path><path d="M1467.3 713L1681.7 576L1527.3 544Z" fill="#3ad9bd" stroke="#3ad9bd"></path><path d="M1527.3 544L1681.7 576L1523.3 336Z" fill="#0fb5ac" stroke="#0fb5ac"></path><path d="M1673.7 753L1681.7 576L1467.3 713Z" fill="#2ccdb8" stroke="#2ccdb8"></path><path d="M664 521L639 680L821.3 516Z" fill="#48e5c2" stroke="#48e5c2"></path><path d="M676 139L820.3 329L872.3 162Z" fill="#2ccdb8" stroke="#2ccdb8"></path><path d="M676 139L603 349L820.3 329Z" fill="#00a9a5" stroke="#00a9a5"></path><path d="M664 521L468.7 546L639 680Z" fill="#0fb5ac" stroke="#0fb5ac"></path><path d="M1103.7 0L830.3 0L872.3 162Z" fill="#00a9a5" stroke="#00a9a5"></path><path d="M830.3 0L676 139L872.3 162Z" fill="#33d3bb" stroke="#33d3bb"></path><path d="M1315 942L1498.3 933L1304 741Z" fill="#25c7b5" stroke="#25c7b5"></path><path d="M1736.7 334L1669.7 175L1523.3 336Z" fill="#3ad9bd" stroke="#3ad9bd"></path><path d="M1536.3 161L1534.3 0L1253 154Z" fill="#3ad9bd" stroke="#3ad9bd"></path><path d="M1669.7 175L1534.3 0L1536.3 161Z" fill="#41dfc0" stroke="#41dfc0"></path><path d="M1498.3 933L1673.7 753L1467.3 713Z" fill="#25c7b5" stroke="#25c7b5"></path><path d="M1920 513L1736.7 334L1681.7 576Z" fill="#48e5c2" stroke="#48e5c2"></path><path d="M1681.7 576L1736.7 334L1523.3 336Z" fill="#33d3bb" stroke="#33d3bb"></path><path d="M888.3 930L1059.7 1080L1053.7 891Z" fill="#48e5c2" stroke="#48e5c2"></path><path d="M1315 942L1455.3 1080L1498.3 933Z" fill="#3ad9bd" stroke="#3ad9bd"></path><path d="M1059.7 1080L1269 1080L1053.7 891Z" fill="#2ccdb8" stroke="#2ccdb8"></path><path d="M888.3 930L869.3 1080L1059.7 1080Z" fill="#2ccdb8" stroke="#2ccdb8"></path><path d="M639 680L676 931L890.3 688Z" fill="#1ec1b2" stroke="#1ec1b2"></path><path d="M830.3 0L651 0L676 139Z" fill="#1ec1b2" stroke="#1ec1b2"></path><path d="M415.7 202L391.7 361L603 349Z" fill="#0fb5ac" stroke="#0fb5ac"></path><path d="M676 931L869.3 1080L888.3 930Z" fill="#1ec1b2" stroke="#1ec1b2"></path><path d="M603 349L468.7 546L664 521Z" fill="#25c7b5" stroke="#25c7b5"></path><path d="M639 680L462.7 753L676 931Z" fill="#48e5c2" stroke="#48e5c2"></path><path d="M391.7 361L468.7 546L603 349Z" fill="#07afa8" stroke="#07afa8"></path><path d="M1269 1080L1455.3 1080L1315 942Z" fill="#00a9a5" stroke="#00a9a5"></path><path d="M1498.3 933L1730.7 876L1673.7 753Z" fill="#17bbaf" stroke="#17bbaf"></path><path d="M1726.7 1080L1730.7 876L1498.3 933Z" fill="#41dfc0" stroke="#41dfc0"></path><path d="M1920 692L1920 513L1681.7 576Z" fill="#48e5c2" stroke="#48e5c2"></path><path d="M468.7 546L462.7 753L639 680Z" fill="#2ccdb8" stroke="#2ccdb8"></path><path d="M1920 222L1737.7 0L1669.7 175Z" fill="#1ec1b2" stroke="#1ec1b2"></path><path d="M1669.7 175L1737.7 0L1534.3 0Z" fill="#33d3bb" stroke="#33d3bb"></path><path d="M415.7 202L603 349L676 139Z" fill="#2ccdb8" stroke="#2ccdb8"></path><path d="M468.7 546L250.3 762L462.7 753Z" fill="#07afa8" stroke="#07afa8"></path><path d="M464.7 0L415.7 202L676 139Z" fill="#48e5c2" stroke="#48e5c2"></path><path d="M1920 692L1681.7 576L1673.7 753Z" fill="#1ec1b2" stroke="#1ec1b2"></path><path d="M1736.7 334L1920 222L1669.7 175Z" fill="#0fb5ac" stroke="#0fb5ac"></path><path d="M1920 513L1920 318L1736.7 334Z" fill="#17bbaf" stroke="#17bbaf"></path><path d="M1730.7 876L1920 692L1673.7 753Z" fill="#07afa8" stroke="#07afa8"></path><path d="M445.7 891L625 1080L676 931Z" fill="#17bbaf" stroke="#17bbaf"></path><path d="M676 931L625 1080L869.3 1080Z" fill="#2ccdb8" stroke="#2ccdb8"></path><path d="M1920 318L1920 222L1736.7 334Z" fill="#07afa8" stroke="#07afa8"></path><path d="M651 0L464.7 0L676 139Z" fill="#41dfc0" stroke="#41dfc0"></path><path d="M250.3 762L445.7 891L462.7 753Z" fill="#48e5c2" stroke="#48e5c2"></path><path d="M462.7 753L445.7 891L676 931Z" fill="#1ec1b2" stroke="#1ec1b2"></path><path d="M1455.3 1080L1726.7 1080L1498.3 933Z" fill="#17bbaf" stroke="#17bbaf"></path><path d="M1730.7 876L1920 939L1920 692Z" fill="#25c7b5" stroke="#25c7b5"></path><path d="M1920 222L1920 0L1737.7 0Z" fill="#07afa8" stroke="#07afa8"></path><path d="M1726.7 1080L1920 939L1730.7 876Z" fill="#0fb5ac" stroke="#0fb5ac"></path><path d="M415.7 202L230.3 342L391.7 361Z" fill="#41dfc0" stroke="#41dfc0"></path><path d="M391.7 361L177.3 497L468.7 546Z" fill="#33d3bb" stroke="#33d3bb"></path><path d="M188.3 136L230.3 342L415.7 202Z" fill="#3ad9bd" stroke="#3ad9bd"></path><path d="M445.7 891L443.7 1080L625 1080Z" fill="#48e5c2" stroke="#48e5c2"></path><path d="M235.3 1080L443.7 1080L445.7 891Z" fill="#2ccdb8" stroke="#2ccdb8"></path><path d="M177.3 497L250.3 762L468.7 546Z" fill="#48e5c2" stroke="#48e5c2"></path><path d="M230.3 342L177.3 497L391.7 361Z" fill="#07afa8" stroke="#07afa8"></path><path d="M1726.7 1080L1920 1080L1920 939Z" fill="#2ccdb8" stroke="#2ccdb8"></path><path d="M464.7 0L248.3 0L415.7 202Z" fill="#25c7b5" stroke="#25c7b5"></path><path d="M0 372L0 538L177.3 497Z" fill="#25c7b5" stroke="#25c7b5"></path><path d="M248.3 0L188.3 136L415.7 202Z" fill="#07afa8" stroke="#07afa8"></path><path d="M0 748L175.3 937L250.3 762Z" fill="#1ec1b2" stroke="#1ec1b2"></path><path d="M250.3 762L175.3 937L445.7 891Z" fill="#41dfc0" stroke="#41dfc0"></path><path d="M175.3 937L235.3 1080L445.7 891Z" fill="#3ad9bd" stroke="#3ad9bd"></path><path d="M177.3 497L0 748L250.3 762Z" fill="#00a9a5" stroke="#00a9a5"></path><path d="M175.3 937L0 1080L235.3 1080Z" fill="#25c7b5" stroke="#25c7b5"></path><path d="M0 372L177.3 497L230.3 342Z" fill="#25c7b5" stroke="#25c7b5"></path><path d="M0 372L230.3 342L0 195Z" fill="#2ccdb8" stroke="#2ccdb8"></path><path d="M0 195L230.3 342L188.3 136Z" fill="#25c7b5" stroke="#25c7b5"></path><path d="M0 0L0 195L188.3 136Z" fill="#17bbaf" stroke="#17bbaf"></path><path d="M0 538L0 748L177.3 497Z" fill="#07afa8" stroke="#07afa8"></path><path d="M0 748L0 888L175.3 937Z" fill="#33d3bb" stroke="#33d3bb"></path><path d="M248.3 0L0 0L188.3 136Z" fill="#2ccdb8" stroke="#2ccdb8"></path><path d="M0 888L0 1080L175.3 937Z" fill="#0fb5ac" stroke="#0fb5ac"></path></g></svg>