<svg xmlns="http://www.w3.org/2000/svg" width="32" height="32" id="architecture"><path d="M24.5 1023.362a.5.5 0 0 0-.5.5v1.5h5v-1.5a.5.5 0 0 0-.5-.5zm-16.477 3A3.028 3.028 0 0 0 5 1029.386v12.976h17.5a.5.5 0 0 1 .5.5v3.5h.977a3.025 3.025 0 0 0 3.023-3.02v-1.34c-.251.775-.884.82-1.21.321l-2.72-5.004a.5.5 0 0 1-.07-.294v-10.663H9.658zm15.977 0v9.97h2v-9.97zm3 0v9.97h2v-9.97zm-18.5 2h4a.5.5 0 0 1 .5.5v3.5h3v-3.5a.5.5 0 0 1 .5-.5h4a.5.5 0 0 1 .5.5v4a.5.5 0 0 1-.5.5H17v3h3.5a.5.5 0 0 1 .5.5v4a.5.5 0 0 1-.5.5h-4a.5.5 0 0 1-.5-.5v-3.5h-3.5a.5.5 0 0 1-.5-.5v-3.5H8.5a.5.5 0 0 1-.5-.5v-4a.5.5 0 0 1 .5-.5zm.5 1v3h3v-3zm8 0v3h3v-3zm-4 4v3h3v-3zm11.176 3.97 1.877 3.755a.5.5 0 0 0 .894 0l1.877-3.756zm-7.176.03v3h3v-3zm-14 6v6h19v-6h-2v2h-1v-2h-1v4h-1v-4h-1v2h-1v-2h-1v4h-1v-4h-1v2h-1v-2h-1v4H9v-4H8v2H7v-2H6v4H5v-4z" color="#000" font-family="sans-serif" font-weight="400" overflow="visible" style="line-height:normal;text-indent:0;text-align:start;text-decoration-line:none;text-decoration-style:solid;text-decoration-color:#000;text-transform:none;block-progression:tb;white-space:normal;isolation:auto;mix-blend-mode:normal;solid-color:#000;solid-opacity:1" transform="translate(0 -1020.362)"></path></svg>