<svg xmlns="http://www.w3.org/2000/svg" data-name="Layer 1" viewBox="0 0 64 64" id="pattern"><path d="M56,20a5.97,5.97,0,0,0-4.126,1.655L37.333,10.75A5.929,5.929,0,0,0,38,8,6,6,0,0,0,26,8a5.942,5.942,0,0,0,.666,2.751l-14.54,10.9A6,6,0,1,0,8,32a6.05,6.05,0,0,0,1.271-.138l7.6,19.026A5.995,5.995,0,1,0,25.91,57H38.09a6,6,0,1,0,9.035-6.112l7.6-19.026A6,6,0,1,0,56,20Zm-5.977,6.461L37.495,29.6A6.017,6.017,0,0,0,33,26.09V13.9a6.046,6.046,0,0,0,3.131-1.554L50.672,23.254A5.949,5.949,0,0,0,50,26C50,26.156,50.012,26.308,50.023,26.461ZM32,36a4,4,0,1,1,4-4A4,4,0,0,1,32,36Zm-5.5-6.4L13.977,26.461c.011-.153.023-.3.023-.461a5.949,5.949,0,0,0-.672-2.746L27.877,12.342A6.04,6.04,0,0,0,31,13.905V26.09A6.017,6.017,0,0,0,26.505,29.6ZM32,4a4,4,0,0,1,4,4,3.933,3.933,0,0,1-.8,2.4h0l0,0a4,4,0,0,1-6.405,0A3.933,3.933,0,0,1,28,8,4,4,0,0,1,32,4ZM4,26a4,4,0,1,1,4,4A4,4,0,0,1,4,26Zm7.125,5.112A6.032,6.032,0,0,0,13.5,28.4l12.528,3.137c-.011.153-.023.3-.023.461a5.989,5.989,0,0,0,2.461,4.834L21.755,50.263A5.982,5.982,0,0,0,20,50a6.05,6.05,0,0,0-1.271.138ZM20,60a4,4,0,1,1,4-4A4,4,0,0,1,20,60Zm18.09-5H25.91a6,6,0,0,0-2.371-3.834l6.706-13.429a5.987,5.987,0,0,0,3.51,0l6.706,13.429A6,6,0,0,0,38.09,55ZM44,60a4,4,0,1,1,4-4A4,4,0,0,1,44,60Zm1.271-9.862A6.05,6.05,0,0,0,44,50a5.982,5.982,0,0,0-1.755.263L35.539,36.834A5.989,5.989,0,0,0,38,32c0-.156-.012-.308-.023-.461L50.505,28.4a6.032,6.032,0,0,0,2.37,2.71ZM56,30a4,4,0,1,1,4-4A4,4,0,0,1,56,30Z"></path></svg>